<?xml version="1.0"?>
<svg xmlns="http://www.w3.org/2000/svg" height="512px" viewBox="0 -16 480 480" width="512px" class=""><g><path d="m400 344c11.457031.003906 21.3125 8.105469 23.535156 19.34375s-3.808594 22.484375-14.402344 26.847656c-10.59375 4.363282-22.792968.632813-29.132812-8.910156 5.332031-8.050781 5.332031-18.511719 0-26.5625 4.4375-6.710938 11.953125-10.742188 20-10.71875zm0 0" fill="#bddbff" data-original="#BDDBFF" class="active-path" data-old_color="#bddbff" style="fill:#FFFFFF"/><path d="m380 354.71875c5.332031 8.050781 5.332031 18.511719 0 26.5625-5.855469 8.8125-16.796875 12.753906-26.925781 9.695312-10.132813-3.058593-17.066407-12.394531-17.066407-22.976562s6.933594-19.917969 17.066407-22.976562c10.128906-3.058594 21.070312.882812 26.925781 9.695312zm0 0" fill="#bddbff" data-original="#BDDBFF" class="active-path" data-old_color="#bddbff" style="fill:#FFFFFF"/><path d="m232 136v176c-.027344 8.824219-7.175781 15.972656-16 16h-192c-8.824219-.027344-15.972656-7.175781-16-16v-176zm0 0" fill="#bddbff" data-original="#BDDBFF" class="active-path" data-old_color="#bddbff" style="fill:#FFFFFF"/><g fill="#3d9ae2"><path d="m440 208h-184v16h184c13.253906 0 24 10.746094 24 24v160c0 13.253906-10.746094 24-24 24h-288c-13.253906 0-24-10.746094-24-24v-56h-16v56c.027344 22.082031 17.917969 39.972656 40 40h288c22.082031-.027344 39.972656-17.917969 40-40v-160c-.027344-22.082031-17.917969-39.972656-40-40zm0 0" data-original="#3D9AE2" class="" data-old_color="#3D9AE2" style="fill:#FFFFFF"/><path d="m328 368c-.066406 12.3125 6.976562 23.5625 18.085938 28.878906 11.109374 5.316406 24.285156 3.746094 33.835937-4.03125 13.054687 10.597656 32.085937 9.277344 43.558594-3.015625 11.472656-12.292969 11.472656-31.371093 0-43.664062-11.472657-12.292969-30.503907-13.613281-43.558594-3.015625-9.550781-7.777344-22.726563-9.347656-33.835937-4.03125-11.109376 5.316406-18.152344 16.566406-18.085938 28.878906zm88 0c0 8.835938-7.164062 16-16 16-3.824219.011719-7.519531-1.371094-10.398438-3.886719 3.21875-7.753906 3.21875-16.472656 0-24.226562 2.878907-2.515625 6.574219-3.898438 10.398438-3.886719 8.835938 0 16 7.164062 16 16zm-56-16c8.835938 0 16 7.164062 16 16s-7.164062 16-16 16-16-7.164062-16-16 7.164062-16 16-16zm0 0" data-original="#3D9AE2" class="" data-old_color="#3D9AE2" style="fill:#FFFFFF"/><path d="m416 264h16v32h-16zm0 0" data-original="#3D9AE2" class="" data-old_color="#3D9AE2" style="fill:#FFFFFF"/><path d="m384 264h16v32h-16zm0 0" data-original="#3D9AE2" class="" data-old_color="#3D9AE2" style="fill:#FFFFFF"/><path d="m352 264h16v32h-16zm0 0" data-original="#3D9AE2" class="" data-old_color="#3D9AE2" style="fill:#FFFFFF"/><path d="m320 264h16v32h-16zm0 0" data-original="#3D9AE2" class="" data-old_color="#3D9AE2" style="fill:#FFFFFF"/><path d="m160 352h16v16h-16zm0 0" data-original="#3D9AE2" class="" data-old_color="#3D9AE2" style="fill:#FFFFFF"/><path d="m192 352h16v16h-16zm0 0" data-original="#3D9AE2" class="" data-old_color="#3D9AE2" style="fill:#FFFFFF"/><path d="m224 352h16v16h-16zm0 0" data-original="#3D9AE2" class="" data-old_color="#3D9AE2" style="fill:#FFFFFF"/><path d="m256 352h16v16h-16zm0 0" data-original="#3D9AE2" class="" data-old_color="#3D9AE2" style="fill:#FFFFFF"/><path d="m160 384h112v16h-112zm0 0" data-original="#3D9AE2" class="" data-old_color="#3D9AE2" style="fill:#FFFFFF"/><path d="m240 312v-176c0-4.417969-3.582031-8-8-8h-16v-56c-.046875-39.746094-32.253906-71.953125-72-72h-48c-39.746094.046875-71.953125 32.253906-72 72v56h-16c-4.417969 0-8 3.582031-8 8v176c0 13.253906 10.746094 24 24 24h192c13.253906 0 24-10.746094 24-24zm-200-240c.035156-30.914062 25.085938-55.964844 56-56h48c30.914062.035156 55.964844 25.085938 56 56v56h-160zm-24 240v-168h208v168c0 4.417969-3.582031 8-8 8h-192c-4.417969 0-8-3.582031-8-8zm0 0" data-original="#3D9AE2" class="" data-old_color="#3D9AE2" style="fill:#FFFFFF"/><path d="m120 200c-11.675781-.023438-21.664062 8.378906-23.644531 19.886719-1.976563 11.507812 4.632812 22.761719 15.644531 26.640625v33.472656h16v-33.472656c11.011719-3.878906 17.621094-15.132813 15.644531-26.640625-1.980469-11.507813-11.96875-19.910157-23.644531-19.886719zm0 32c-4.417969 0-8-3.582031-8-8s3.582031-8 8-8 8 3.582031 8 8-3.582031 8-8 8zm0 0" data-original="#3D9AE2" class="" data-old_color="#3D9AE2" style="fill:#FFFFFF"/><path d="m384 192h16v-128c0-4.417969-3.582031-8-8-8h-160v16h152zm0 0" data-original="#3D9AE2" class="" data-old_color="#3D9AE2" style="fill:#FFFFFF"/><path d="m48 352h-16v64c0 4.417969 3.582031 8 8 8h56v-16h-48zm0 0" data-original="#3D9AE2" class="" data-old_color="#3D9AE2" style="fill:#FFFFFF"/><path d="m416 176h16v16h-16zm0 0" data-original="#3D9AE2" class="" data-old_color="#3D9AE2" style="fill:#FFFFFF"/><path d="m416 144h16v16h-16zm0 0" data-original="#3D9AE2" class="" data-old_color="#3D9AE2" style="fill:#FFFFFF"/><path d="m416 112h16v16h-16zm0 0" data-original="#3D9AE2" class="" data-old_color="#3D9AE2" style="fill:#FFFFFF"/></g></g> </svg>
