<?xml version="1.0"?>
<svg xmlns="http://www.w3.org/2000/svg" height="512px" viewBox="0 0 480 480" width="512px" class=""><g><path d="m408 8v64l-16-24-16 24v-64zm0 0" fill="#bddbff" data-original="#BDDBFF" class="active-path" data-old_color="#bddbff" style="fill:#FFFFFF"/><path d="m472 56v384c-.027344 8.824219-7.175781 15.972656-16 16h-192v-32h160c8.824219-.027344 15.972656-7.175781 16-16v-368h16c8.824219.027344 15.972656 7.175781 16 16zm0 0" fill="#bddbff" data-original="#BDDBFF" class="active-path" data-old_color="#bddbff" style="fill:#FFFFFF"/><path d="m292.320312 296c-14.867187-65.527344-73.125-112.027344-140.320312-112-5.34375.007812-10.6875.304688-16 .878906-57.398438 6.402344-105.414062 46.480469-121.984375 101.804688-16.566406 55.328125 1.523437 115.199218 45.957031 152.09375 44.433594 36.894531 106.609375 43.675781 157.949219 17.222656 15.644531-8.015625 29.667969-18.867188 41.359375-32 23.664062-26.375 36.742188-60.566406 36.71875-96 .039062-10.773438-1.199219-21.515625-3.679688-32zm-68.320312 117.679688c-4.480469 3.832031-9.269531 7.28125-14.320312 10.320312-5.625 3.378906-11.542969 6.242188-17.679688 8.558594-7.730469 3.023437-15.785156 5.144531-24 6.320312-5.300781.742188-10.648438 1.113282-16 1.121094-13.679688.011719-27.242188-2.511719-40-7.441406-11.675781-4.402344-22.5-10.789063-32-18.878906-33.828125-28.371094-47.816406-73.972657-35.71875-116.433594 12.09375-42.460938 48.019531-73.84375 91.71875-80.125 5.300781-.742188 10.648438-1.113282 16-1.121094 47.070312-.027344 89.125 29.394531 105.234375 73.621094 16.109375 44.230468 2.828125 93.808594-33.234375 124.058594zm0 0" fill="#bddbff" data-original="#BDDBFF" class="active-path" data-old_color="#bddbff" style="fill:#FFFFFF"/><path d="m200.800781 369.359375-21.199219-6.078125-27.601562 20.71875-16-12-11.601562-8.71875-21.199219 6.078125c-13.746094 3.933594-23.214844 16.503906-23.199219 30.800781v13.519532c9.5 8.089843 20.324219 14.476562 32 18.878906 12.757812 4.929687 26.320312 7.453125 40 7.441406 5.351562-.007812 10.699219-.378906 16-1.121094 8.214844-1.175781 16.269531-3.296875 24-6.320312 6.136719-2.316406 12.054688-5.179688 17.679688-8.558594 5.050781-3.039062 9.839843-6.488281 14.320312-10.320312v-13.519532c.015625-14.296875-9.453125-26.867187-23.199219-30.800781zm0 0" fill="#bddbff" data-original="#BDDBFF" class="active-path" data-old_color="#bddbff" style="fill:#FFFFFF"/><path d="m152 248c-5.5.003906-10.941406 1.121094-16 3.28125-14.554688 6.417969-23.964844 20.808594-24 36.71875v8h17.441406c2.191406-.011719 4.382813-.144531 6.558594-.398438 7.191406-1.003906 14.058594-3.628906 20.078125-7.679687l11.921875-7.921875 3.601562 7.121094c2.355469 4.84375 7.039063 8.140625 12.398438 8.71875.632812.132812 1.277344.1875 1.921875.160156h6.078125v-8c0-22.089844-17.910156-40-40-40zm0 0" fill="#bddbff" data-original="#BDDBFF" class="active-path" data-old_color="#bddbff" style="fill:#FFFFFF"/><g fill="#3d9ae2"><path d="m456 32h-8v-8c0-13.253906-10.746094-24-24-24h-272c-13.253906 0-24 10.746094-24 24v136h16v-136c0-4.417969 3.582031-8 8-8h216v56c0 3.527344 2.304688 6.636719 5.679688 7.65625 3.375 1.023438 7.019531-.28125 8.976562-3.214844l9.34375-14.042968 9.34375 14.015624c1.953125 2.929688 5.59375 4.238282 8.964844 3.222657s5.683594-4.117188 5.691406-7.636719v-56h8c4.417969 0 8 3.582031 8 8v384c0 4.417969-3.582031 8-8 8h-136v16h136c13.253906 0 24-10.746094 24-24v-360h8c4.417969 0 8 3.582031 8 8v384c0 4.417969-3.582031 8-8 8h-192v16h192c13.253906 0 24-10.746094 24-24v-384c0-13.253906-10.746094-24-24-24zm-56 13.601562-1.34375-2.015624c-1.570312-2.101563-4.035156-3.335938-6.65625-3.335938s-5.085938 1.234375-6.65625 3.335938l-1.34375 2.015624v-29.601562h16zm0 0" data-original="#3D9AE2" class="" style="fill:#FFFFFF" data-old_color="#3D9AE2"/><path d="m176 48h16v16h-16zm0 0" data-original="#3D9AE2" class="" style="fill:#FFFFFF" data-old_color="#3D9AE2"/><path d="m208 48h64v16h-64zm0 0" data-original="#3D9AE2" class="" style="fill:#FFFFFF" data-old_color="#3D9AE2"/><path d="m176 80h96v16h-96zm0 0" data-original="#3D9AE2" class="" style="fill:#FFFFFF" data-old_color="#3D9AE2"/><path d="m152 208c-66.273438 0-120 53.726562-120 120s53.726562 120 120 120 120-53.726562 120-120c-.074219-66.242188-53.757812-119.925781-120-120zm-32 218.910156v-26.910156h-16v20.167969c-5.640625-2.96875-10.996094-6.453125-16-10.398438v-9.609375c.023438-10.714844 7.117188-20.128906 17.40625-23.113281l17.394531-4.957031 24.398438 18.308594c2.84375 2.136718 6.757812 2.136718 9.601562 0l24.390625-18.308594 17.402344 4.964844c10.289062 2.976562 17.382812 12.390624 17.40625 23.105468v9.648438c-5.003906 3.949218-10.359375 7.429687-16 10.398437v-20.207031h-16v26.910156c-20.792969 6.785156-43.207031 6.785156-64 0zm58.71875-143.34375-3.558594-7.132812c-1.023437-2.058594-2.882812-3.574219-5.101562-4.164063-2.222656-.59375-4.585938-.199219-6.5 1.074219l-11.902344 7.9375c-6.566406 4.386719-14.289062 6.722656-22.183594 6.71875h-9.472656c-.0625-17.671875 14.214844-32.050781 31.886719-32.113281 17.675781-.0625 32.050781 14.214843 32.113281 31.890625-2.292969-.554688-4.226562-2.097656-5.28125-4.210938zm-49.246094 20.433594c11.054688.007812 21.863282-3.265625 31.054688-9.40625l4.382812-2.921875c2.519532 4.445313 6.410156 7.953125 11.089844 10v10.328125c0 13.253906-10.746094 24-24 24s-24-10.746094-24-24v-8zm22.527344 48c2.6875.003906 5.367188-.265625 8-.800781v8.800781c.027344 2.277344 1.03125 4.433594 2.761719 5.921875l-10.761719 8.078125-10.761719-8.078125c1.730469-1.488281 2.734375-3.644531 2.761719-5.921875v-8.800781c2.632812.535156 5.3125.804687 8 .800781zm79.558594 42.847656c-2.113282-15.738281-13.3125-28.746094-28.558594-33.183594l-27-7.710937v-10.160156c10.035156-7.492188 15.964844-19.269531 16-31.792969v-8c4.417969 0 8-3.582031 8-8v-8c0-26.507812-21.492188-48-48-48s-48 21.492188-48 48v8c0 4.417969 3.582031 8 8 8v8c.035156 12.523438 5.964844 24.300781 16 31.792969v10.160156l-26.992188 7.710937c-15.25 4.433594-26.449218 17.445313-28.566406 33.183594-35.507812-42.175781-31.933594-104.730468 8.148438-142.585937 40.082031-37.855469 102.738281-37.855469 142.820312 0 40.082032 37.855469 43.65625 100.410156 8.148438 142.585937zm0 0" data-original="#3D9AE2" class="" style="fill:#FFFFFF" data-old_color="#3D9AE2"/><path d="m72 320h16v16h-16zm0 0" data-original="#3D9AE2" class="" style="fill:#FFFFFF" data-old_color="#3D9AE2"/><path d="m216 320h16v16h-16zm0 0" data-original="#3D9AE2" class="" style="fill:#FFFFFF" data-old_color="#3D9AE2"/><path d="m152 176c-83.949219 0-152 68.050781-152 152s68.050781 152 152 152 152-68.050781 152-152c-.09375-83.910156-68.089844-151.90625-152-152zm0 288c-75.109375 0-136-60.890625-136-136s60.890625-136 136-136 136 60.890625 136 136c-.082031 75.074219-60.925781 135.917969-136 136zm0 0" data-original="#3D9AE2" class="" style="fill:#FFFFFF" data-old_color="#3D9AE2"/><path d="m256 144h144v16h-144zm0 0" data-original="#3D9AE2" class="" style="fill:#FFFFFF" data-old_color="#3D9AE2"/><path d="m256 176h144v16h-144zm0 0" data-original="#3D9AE2" class="" style="fill:#FFFFFF" data-old_color="#3D9AE2"/><path d="m400 232c0-4.417969-3.582031-8-8-8h-104v16h96v48h-64v16h72c4.417969 0 8-3.582031 8-8zm0 0" data-original="#3D9AE2" class="" style="fill:#FFFFFF" data-old_color="#3D9AE2"/><path d="m336 336h64v16h-64zm0 0" data-original="#3D9AE2" class="" style="fill:#FFFFFF" data-old_color="#3D9AE2"/><path d="m336 368h64v16h-64zm0 0" data-original="#3D9AE2" class="" style="fill:#FFFFFF" data-old_color="#3D9AE2"/></g></g> </svg>
