<?xml version="1.0"?>
<svg xmlns="http://www.w3.org/2000/svg" height="512px" viewBox="0 0 480 480" width="512px" class=""><g><path d="m160 136h160v64h-160zm0 0" fill="#bddbff" data-original="#BDDBFF" class="active-path" data-old_color="#bddbff" style="fill:#FFFFFF"/><path d="m344 8v64l-16-24-16 24v-64zm0 0" fill="#bddbff" data-original="#BDDBFF" class="active-path" data-old_color="#bddbff" style="fill:#FFFFFF"/><path d="m471.761719 224h-39.761719c-8.824219-.027344-15.972656-7.175781-16-16v-48h-40v216c-.027344 8.824219-7.175781 15.972656-16 16h-112v32c-.027344 8.824219-7.175781 15.972656-16 16h-16v16c.027344 8.824219 7.175781 15.972656 16 16h224c8.824219-.027344 15.972656-7.175781 16-16v-231.761719zm0 0" fill="#bddbff" data-original="#BDDBFF" class="active-path" data-old_color="#bddbff" style="fill:#FFFFFF"/><path d="m120 392c-8.824219-.027344-15.972656-7.175781-16-16v-288h-32v64l-16-24-16 24v-64h-16c-8.824219.027344-15.972656 7.175781-16 16v320c.027344 8.824219 7.175781 15.972656 16 16h208c8.824219-.027344 15.972656-7.175781 16-16v-32zm0 0" fill="#bddbff" data-original="#BDDBFF" class="active-path" data-old_color="#bddbff" style="fill:#FFFFFF"/><g fill="#3d9ae2"><path d="m477.792969 218.742188-55.761719-64c-1.519531-1.742188-3.71875-2.742188-6.03125-2.742188h-32v-80h64v88h16v-96c0-4.417969-3.582031-8-8-8h-72v-32c0-13.253906-10.746094-24-24-24h-240c-13.253906 0-24 10.746094-24 24h-48c-4.417969 0-8 3.582031-8 8v32h16v-24h40v40h-72c-13.253906 0-24 10.746094-24 24v320c0 13.253906 10.746094 24 24 24h184v8c0 13.253906 10.746094 24 24 24h224c13.253906 0 24-10.746094 24-24v-231.761719c-.082031-2.03125-.863281-3.96875-2.207031-5.496093zm-53.792969-37.382813 30.183594 34.640625h-22.183594c-4.417969 0-8-3.582031-8-8zm-104-165.359375h16v29.601562l-1.34375-2.015624c-1.570312-2.101563-4.035156-3.335938-6.65625-3.335938s-5.085938 1.234375-6.65625 3.335938l-1.34375 2.015624zm-208 8c0-4.417969 3.582031-8 8-8h184v56c0 3.527344 2.304688 6.636719 5.679688 7.65625 3.375 1.023438 7.019531-.28125 8.976562-3.214844l9.34375-14.042968 9.34375 14.015624c1.953125 2.929688 5.59375 4.238282 8.964844 3.222657s5.683594-4.117188 5.691406-7.636719v-56h8c4.417969 0 8 3.582031 8 8v352c0 4.417969-3.582031 8-8 8h-240c-4.417969 0-8-3.582031-8-8zm-64 72h16v29.601562l-1.34375-2.015624c-1.570312-2.101563-4.035156-3.335938-6.65625-3.335938s-5.085938 1.234375-6.65625 3.335938l-1.34375 2.015624zm-32 328v-320c0-4.417969 3.582031-8 8-8h8v56c0 3.527344 2.304688 6.636719 5.679688 7.65625 3.375 1.023438 7.019531-.28125 8.976562-3.214844l9.34375-14.042968 9.34375 14.015624c1.953125 2.929688 5.59375 4.238282 8.964844 3.222657s5.683594-4.117188 5.691406-7.636719v-56h16v280c0 13.253906 10.746094 24 24 24h120v24c0 4.417969-3.582031 8-8 8h-208c-4.417969 0-8-3.582031-8-8zm440 40h-224c-4.417969 0-8-3.582031-8-8v-8h8c13.253906 0 24-10.746094 24-24v-24h104c13.253906 0 24-10.746094 24-24v-208h24v40c0 13.253906 10.746094 24 24 24h32v224c0 4.417969-3.582031 8-8 8zm0 0" data-original="#3D9AE2" class="" data-old_color="#3D9AE2" style="fill:#FFFFFF"/><path d="m160 208h160c4.417969 0 8-3.582031 8-8v-64c0-4.417969-3.582031-8-8-8h-160c-4.417969 0-8 3.582031-8 8v64c0 4.417969 3.582031 8 8 8zm8-64h144v48h-144zm0 0" data-original="#3D9AE2" class="" data-old_color="#3D9AE2" style="fill:#FFFFFF"/><path d="m232 160h16v16h-16zm0 0" data-original="#3D9AE2" class="" data-old_color="#3D9AE2" style="fill:#FFFFFF"/><path d="m264 160h16v16h-16zm0 0" data-original="#3D9AE2" class="" data-old_color="#3D9AE2" style="fill:#FFFFFF"/><path d="m200 160h16v16h-16zm0 0" data-original="#3D9AE2" class="" data-old_color="#3D9AE2" style="fill:#FFFFFF"/><path d="m152 48h48v16h-48zm0 0" data-original="#3D9AE2" class="" data-old_color="#3D9AE2" style="fill:#FFFFFF"/><path d="m152 80h48v16h-48zm0 0" data-original="#3D9AE2" class="" data-old_color="#3D9AE2" style="fill:#FFFFFF"/><path d="m152 240h176v16h-176zm0 0" data-original="#3D9AE2" class="" data-old_color="#3D9AE2" style="fill:#FFFFFF"/><path d="m152 272h176v16h-176zm0 0" data-original="#3D9AE2" class="" data-old_color="#3D9AE2" style="fill:#FFFFFF"/><path d="m152 304h176v16h-176zm0 0" data-original="#3D9AE2" class="" data-old_color="#3D9AE2" style="fill:#FFFFFF"/><path d="m400 272h48v16h-48zm0 0" data-original="#3D9AE2" class="" data-old_color="#3D9AE2" style="fill:#FFFFFF"/><path d="m400 304h48v16h-48zm0 0" data-original="#3D9AE2" class="" data-old_color="#3D9AE2" style="fill:#FFFFFF"/><path d="m400 336h48v16h-48zm0 0" data-original="#3D9AE2" class="" data-old_color="#3D9AE2" style="fill:#FFFFFF"/><path d="m400 368h48v16h-48zm0 0" data-original="#3D9AE2" class="" data-old_color="#3D9AE2" style="fill:#FFFFFF"/><path d="m32 336h48v16h-48zm0 0" data-original="#3D9AE2" class="" data-old_color="#3D9AE2" style="fill:#FFFFFF"/><path d="m32 304h48v16h-48zm0 0" data-original="#3D9AE2" class="" data-old_color="#3D9AE2" style="fill:#FFFFFF"/><path d="m32 272h48v16h-48zm0 0" data-original="#3D9AE2" class="" data-old_color="#3D9AE2" style="fill:#FFFFFF"/><path d="m32 240h48v16h-48zm0 0" data-original="#3D9AE2" class="" data-old_color="#3D9AE2" style="fill:#FFFFFF"/><path d="m32 208h48v16h-48zm0 0" data-original="#3D9AE2" class="" data-old_color="#3D9AE2" style="fill:#FFFFFF"/></g></g> </svg>
